# xmcd
#
# Track frame offsets: 
#        150
#        10445
#        26787
#        39312
#        52617
#        66712
#        79200
#        91350
#        106900
#        120455
#        132062
#        143387
#        155650
#        167862
#        179170
#        192875
#        206045
#        216562
#        235087
#        246005
#
# Disc length: 3437 seconds
#
# Revision: 0
# Processed by: cddbd v1.5.2PL0 Copyright (c) Steve Scherf et al.
# Submitted via: ExactAudioCopy v1.0b2
#
DISCID=1c0d6b14
DTITLE=Various Artist - Vom Blues zum Rhythm and Blues - CD 2
DYEAR=1900
DGENRE=
TTITLE0=L. Kimbrough - Rollin' Log Blues
TTITLE1=The Blues Band - Rollin' Log Blues
TTITLE2=Robert Johnson - Come on in my kitchen
TTITLE3=Robert Johnson - Dust my broom
TTITLE4=ZZ Top - Dust my broom
TTITLE5=Chester Burnett - Highway 49
TTITLE6=Muddy Waters - I can't be satisfied
TTITLE7=The Rolling Stones - I can't be satisfied
TTITLE8=Chester Burnett - Smokestack lightning
TTITLE9=Louis Jordan - Caldonia
TTITLE10=Fats Domino - The fat man
TTITLE11=Champion Jack Dupree - Junkers Blues
TTITLE12=Otis Spann - I'm leaving you
TTITLE13=The Piltdown Men - Piltdown Boogie
TTITLE14=Nat "King" Cole - Route 66
TTITLE15=Chuck Berry - Route 66
TTITLE16=The Rolling Stones - Route 66
TTITLE17=Depeche Mode - Route 66
TTITLE18=Bo Diddley - Bo Diddley
TTITLE19=Johnny Otis - Willie and the handjive
EXTD=
EXTT0=
EXTT1=
EXTT2=
EXTT3=
EXTT4=
EXTT5=
EXTT6=
EXTT7=
EXTT8=
EXTT9=
EXTT10=
EXTT11=
EXTT12=
EXTT13=
EXTT14=
EXTT15=
EXTT16=
EXTT17=
EXTT18=
EXTT19=
PLAYORDER=
